<svg width="1920" height="10351" viewBox="0 0 1920 10351" fill="none" xmlns="http://www.w3.org/2000/svg">
<path d="M409.227 42.5801C315.181 228.556 194.547 671.363 464.387 954.781C801.687 1309.05 1219.6 1593.32 1486.9 1593.32C1754.19 1593.32 1448.71 1075.7 1232.33 1639.99C1015.95 2204.28 1385.31 2519.87 1534.02 2750.62C1682.72 2981.37 1979.28 3140.33 1605.81 3658.23C1232.33 4176.14 457.189 4653.02 308.485 4683.78C159.78 4714.55 102.328 4333.49 395.656 4406.88C688.985 4480.28 918.685 4755.57 1262.25 5099.13C1605.81 5442.69 1821.17 5950.34 1677.59 6534.9C1534.02 7119.47 698.193 7857.86 405.911 8098.87C113.629 8339.87 21.3289 9114.17 303.356 9611.56C585.382 10108.9 1072.52 10052.5 1149.44 10052.5C1226.35 10052.5 1723.75 10052.5 1723.75 9770.52" stroke="black"/>
</svg>
